<mxfile host="Electron" modified="2023-10-30T15:48:34.944Z" agent="Mozilla/5.0 (Windows NT 10.0; Win64; x64) AppleWebKit/537.36 (KHTML, like Gecko) draw.io/21.7.5 Chrome/114.0.5735.289 Electron/25.8.1 Safari/537.36" etag="uWlDeNwdu9tjxuHbDbqI" version="21.7.5" type="device">
  <diagram name="Page-1" id="uYmUhseXZ8bXHUldXYV-">
    <mxGraphModel dx="1886" dy="606" grid="1" gridSize="10" guides="1" tooltips="1" connect="1" arrows="1" fold="1" page="1" pageScale="1" pageWidth="850" pageHeight="1100" background="none" math="0" shadow="0">
      <root>
        <mxCell id="0" />
        <mxCell id="1" parent="0" />
        <mxCell id="8ay12BuJfRKTgijHyB5j-6" style="edgeStyle=orthogonalEdgeStyle;rounded=0;orthogonalLoop=1;jettySize=auto;html=1;exitX=0.5;exitY=1;exitDx=0;exitDy=0;entryX=0.378;entryY=0.037;entryDx=0;entryDy=0;entryPerimeter=0;labelBackgroundColor=none;fontColor=default;strokeColor=#E07A5F;" edge="1" parent="1" source="8ay12BuJfRKTgijHyB5j-1" target="8ay12BuJfRKTgijHyB5j-4">
          <mxGeometry relative="1" as="geometry">
            <Array as="points">
              <mxPoint x="380" y="80" />
              <mxPoint x="380" y="170" />
              <mxPoint x="319" y="170" />
            </Array>
          </mxGeometry>
        </mxCell>
        <mxCell id="8ay12BuJfRKTgijHyB5j-8" style="edgeStyle=orthogonalEdgeStyle;rounded=0;orthogonalLoop=1;jettySize=auto;html=1;exitX=1;exitY=0.5;exitDx=0;exitDy=0;entryX=0.5;entryY=0;entryDx=0;entryDy=0;labelBackgroundColor=none;fontColor=default;strokeColor=#E07A5F;" edge="1" parent="1" source="8ay12BuJfRKTgijHyB5j-1" target="8ay12BuJfRKTgijHyB5j-7">
          <mxGeometry relative="1" as="geometry" />
        </mxCell>
        <mxCell id="8ay12BuJfRKTgijHyB5j-9" style="edgeStyle=orthogonalEdgeStyle;rounded=0;orthogonalLoop=1;jettySize=auto;html=1;exitX=0;exitY=0.5;exitDx=0;exitDy=0;entryX=0.5;entryY=0;entryDx=0;entryDy=0;labelBackgroundColor=none;fontColor=default;strokeColor=#E07A5F;" edge="1" parent="1" source="8ay12BuJfRKTgijHyB5j-1" target="8ay12BuJfRKTgijHyB5j-2">
          <mxGeometry relative="1" as="geometry" />
        </mxCell>
        <mxCell id="8ay12BuJfRKTgijHyB5j-11" style="edgeStyle=orthogonalEdgeStyle;rounded=0;orthogonalLoop=1;jettySize=auto;html=1;exitX=1;exitY=1;exitDx=0;exitDy=0;labelBackgroundColor=none;fontColor=default;strokeColor=#E07A5F;" edge="1" parent="1" source="8ay12BuJfRKTgijHyB5j-1" target="8ay12BuJfRKTgijHyB5j-10">
          <mxGeometry relative="1" as="geometry">
            <Array as="points">
              <mxPoint x="450" y="80" />
              <mxPoint x="450" y="170" />
              <mxPoint x="560" y="170" />
            </Array>
          </mxGeometry>
        </mxCell>
        <mxCell id="8ay12BuJfRKTgijHyB5j-1" value="&lt;font style=&quot;font-size: 19px;&quot;&gt;E-commerce&lt;/font&gt;" style="rounded=1;whiteSpace=wrap;html=1;labelBackgroundColor=none;fillColor=#F2CC8F;strokeColor=#E07A5F;fontColor=#393C56;" vertex="1" parent="1">
          <mxGeometry x="340" y="20" width="140" height="60" as="geometry" />
        </mxCell>
        <mxCell id="8ay12BuJfRKTgijHyB5j-13" style="edgeStyle=orthogonalEdgeStyle;rounded=0;orthogonalLoop=1;jettySize=auto;html=1;exitX=0;exitY=1;exitDx=0;exitDy=0;entryX=0.26;entryY=0.042;entryDx=0;entryDy=0;entryPerimeter=0;labelBackgroundColor=none;fontColor=default;strokeColor=#E07A5F;" edge="1" parent="1" source="8ay12BuJfRKTgijHyB5j-2" target="8ay12BuJfRKTgijHyB5j-12">
          <mxGeometry relative="1" as="geometry">
            <Array as="points">
              <mxPoint x="-60" y="280" />
              <mxPoint x="-60" y="325" />
            </Array>
          </mxGeometry>
        </mxCell>
        <mxCell id="8ay12BuJfRKTgijHyB5j-16" style="edgeStyle=orthogonalEdgeStyle;rounded=0;orthogonalLoop=1;jettySize=auto;html=1;entryX=0.405;entryY=-0.013;entryDx=0;entryDy=0;entryPerimeter=0;labelBackgroundColor=none;fontColor=default;strokeColor=#E07A5F;" edge="1" parent="1" target="8ay12BuJfRKTgijHyB5j-14">
          <mxGeometry relative="1" as="geometry">
            <mxPoint x="62" y="290" as="sourcePoint" />
            <Array as="points">
              <mxPoint x="62" y="270" />
              <mxPoint x="63" y="270" />
              <mxPoint x="63" y="280" />
              <mxPoint x="32" y="280" />
            </Array>
          </mxGeometry>
        </mxCell>
        <mxCell id="8ay12BuJfRKTgijHyB5j-18" style="edgeStyle=orthogonalEdgeStyle;rounded=0;orthogonalLoop=1;jettySize=auto;html=1;exitX=0.75;exitY=1;exitDx=0;exitDy=0;entryX=0.5;entryY=0;entryDx=0;entryDy=0;labelBackgroundColor=none;fontColor=default;strokeColor=#E07A5F;" edge="1" parent="1" source="8ay12BuJfRKTgijHyB5j-2" target="8ay12BuJfRKTgijHyB5j-17">
          <mxGeometry relative="1" as="geometry">
            <Array as="points">
              <mxPoint x="180" y="280" />
              <mxPoint x="180" y="400" />
            </Array>
          </mxGeometry>
        </mxCell>
        <mxCell id="8ay12BuJfRKTgijHyB5j-27" style="edgeStyle=orthogonalEdgeStyle;rounded=0;orthogonalLoop=1;jettySize=auto;html=1;exitX=0.75;exitY=1;exitDx=0;exitDy=0;entryX=0.5;entryY=0;entryDx=0;entryDy=0;labelBackgroundColor=none;fontColor=default;strokeColor=#E07A5F;" edge="1" parent="1" source="8ay12BuJfRKTgijHyB5j-2" target="8ay12BuJfRKTgijHyB5j-25">
          <mxGeometry relative="1" as="geometry" />
        </mxCell>
        <mxCell id="8ay12BuJfRKTgijHyB5j-2" value="&lt;font style=&quot;font-size: 20px;&quot;&gt;Home page&lt;/font&gt;" style="rounded=0;whiteSpace=wrap;html=1;labelBackgroundColor=none;fillColor=#F2CC8F;strokeColor=#E07A5F;fontColor=#393C56;" vertex="1" parent="1">
          <mxGeometry x="20" y="220" width="120" height="60" as="geometry" />
        </mxCell>
        <mxCell id="8ay12BuJfRKTgijHyB5j-21" style="edgeStyle=orthogonalEdgeStyle;rounded=0;orthogonalLoop=1;jettySize=auto;html=1;exitX=0.5;exitY=1;exitDx=0;exitDy=0;entryX=0.395;entryY=0;entryDx=0;entryDy=0;entryPerimeter=0;labelBackgroundColor=none;fontColor=default;strokeColor=#E07A5F;" edge="1" parent="1" source="8ay12BuJfRKTgijHyB5j-4" target="8ay12BuJfRKTgijHyB5j-19">
          <mxGeometry relative="1" as="geometry" />
        </mxCell>
        <mxCell id="8ay12BuJfRKTgijHyB5j-4" value="&lt;font style=&quot;font-size: 18px;&quot;&gt;Login &amp;amp; register&lt;br&gt;&amp;nbsp;page&lt;/font&gt;" style="rounded=0;whiteSpace=wrap;html=1;labelBackgroundColor=none;fillColor=#F2CC8F;strokeColor=#E07A5F;fontColor=#393C56;" vertex="1" parent="1">
          <mxGeometry x="260" y="260" width="155" height="60" as="geometry" />
        </mxCell>
        <mxCell id="8ay12BuJfRKTgijHyB5j-32" style="edgeStyle=orthogonalEdgeStyle;rounded=0;orthogonalLoop=1;jettySize=auto;html=1;exitX=0.25;exitY=1;exitDx=0;exitDy=0;entryX=0.5;entryY=0;entryDx=0;entryDy=0;labelBackgroundColor=none;fontColor=default;strokeColor=#E07A5F;" edge="1" parent="1" source="8ay12BuJfRKTgijHyB5j-7" target="8ay12BuJfRKTgijHyB5j-30">
          <mxGeometry relative="1" as="geometry" />
        </mxCell>
        <mxCell id="8ay12BuJfRKTgijHyB5j-33" style="edgeStyle=orthogonalEdgeStyle;rounded=0;orthogonalLoop=1;jettySize=auto;html=1;exitX=0.75;exitY=1;exitDx=0;exitDy=0;entryX=0.5;entryY=0;entryDx=0;entryDy=0;labelBackgroundColor=none;fontColor=default;strokeColor=#E07A5F;" edge="1" parent="1" source="8ay12BuJfRKTgijHyB5j-7" target="8ay12BuJfRKTgijHyB5j-31">
          <mxGeometry relative="1" as="geometry" />
        </mxCell>
        <mxCell id="8ay12BuJfRKTgijHyB5j-7" value="&lt;font style=&quot;font-size: 16px;&quot;&gt;User pages&lt;/font&gt;" style="rounded=0;whiteSpace=wrap;html=1;labelBackgroundColor=none;fillColor=#F2CC8F;strokeColor=#E07A5F;fontColor=#393C56;" vertex="1" parent="1">
          <mxGeometry x="710" y="250" width="120" height="60" as="geometry" />
        </mxCell>
        <mxCell id="8ay12BuJfRKTgijHyB5j-24" style="edgeStyle=orthogonalEdgeStyle;rounded=0;orthogonalLoop=1;jettySize=auto;html=1;exitX=0;exitY=1;exitDx=0;exitDy=0;entryX=0.285;entryY=0.008;entryDx=0;entryDy=0;entryPerimeter=0;labelBackgroundColor=none;fontColor=default;strokeColor=#E07A5F;" edge="1" parent="1" source="8ay12BuJfRKTgijHyB5j-10" target="8ay12BuJfRKTgijHyB5j-22">
          <mxGeometry relative="1" as="geometry">
            <Array as="points">
              <mxPoint x="460" y="320" />
              <mxPoint x="460" y="391" />
            </Array>
          </mxGeometry>
        </mxCell>
        <mxCell id="8ay12BuJfRKTgijHyB5j-29" style="edgeStyle=orthogonalEdgeStyle;rounded=0;orthogonalLoop=1;jettySize=auto;html=1;exitX=0.75;exitY=1;exitDx=0;exitDy=0;entryX=0.5;entryY=0;entryDx=0;entryDy=0;labelBackgroundColor=none;fontColor=default;strokeColor=#E07A5F;" edge="1" parent="1" source="8ay12BuJfRKTgijHyB5j-10" target="8ay12BuJfRKTgijHyB5j-28">
          <mxGeometry relative="1" as="geometry">
            <Array as="points">
              <mxPoint x="650" y="320" />
              <mxPoint x="650" y="396" />
            </Array>
          </mxGeometry>
        </mxCell>
        <mxCell id="8ay12BuJfRKTgijHyB5j-10" value="&lt;font style=&quot;font-size: 17px;&quot;&gt;admin page&lt;/font&gt;" style="rounded=0;whiteSpace=wrap;html=1;labelBackgroundColor=none;fillColor=#F2CC8F;strokeColor=#E07A5F;fontColor=#393C56;" vertex="1" parent="1">
          <mxGeometry x="500" y="260" width="120" height="60" as="geometry" />
        </mxCell>
        <mxCell id="8ay12BuJfRKTgijHyB5j-12" value="&lt;font style=&quot;font-size: 17px;&quot;&gt;new items&lt;/font&gt;" style="ellipse;whiteSpace=wrap;html=1;aspect=fixed;labelBackgroundColor=none;fillColor=#F2CC8F;strokeColor=#E07A5F;fontColor=#393C56;" vertex="1" parent="1">
          <mxGeometry x="-80" y="400" width="80" height="80" as="geometry" />
        </mxCell>
        <mxCell id="8ay12BuJfRKTgijHyB5j-14" value="&lt;font style=&quot;font-size: 16px;&quot;&gt;categories&lt;/font&gt;" style="ellipse;whiteSpace=wrap;html=1;aspect=fixed;labelBackgroundColor=none;fillColor=#F2CC8F;strokeColor=#E07A5F;fontColor=#393C56;" vertex="1" parent="1">
          <mxGeometry y="360" width="80" height="80" as="geometry" />
        </mxCell>
        <mxCell id="8ay12BuJfRKTgijHyB5j-17" value="&lt;font style=&quot;font-size: 15px;&quot;&gt;Offers&lt;/font&gt;" style="ellipse;whiteSpace=wrap;html=1;aspect=fixed;labelBackgroundColor=none;fillColor=#F2CC8F;strokeColor=#E07A5F;fontColor=#393C56;" vertex="1" parent="1">
          <mxGeometry x="160" y="411.25" width="80" height="80" as="geometry" />
        </mxCell>
        <mxCell id="8ay12BuJfRKTgijHyB5j-19" value="&lt;font style=&quot;font-size: 15px;&quot;&gt;login and register form&lt;/font&gt;" style="ellipse;whiteSpace=wrap;html=1;aspect=fixed;labelBackgroundColor=none;fillColor=#F2CC8F;strokeColor=#E07A5F;fontColor=#393C56;" vertex="1" parent="1">
          <mxGeometry x="286.25" y="388.75" width="102.5" height="102.5" as="geometry" />
        </mxCell>
        <mxCell id="8ay12BuJfRKTgijHyB5j-22" value="&lt;font style=&quot;font-size: 15px;&quot;&gt;DashBord&lt;/font&gt;" style="ellipse;whiteSpace=wrap;html=1;aspect=fixed;labelBackgroundColor=none;fillColor=#F2CC8F;strokeColor=#E07A5F;fontColor=#393C56;" vertex="1" parent="1">
          <mxGeometry x="425" y="380" width="80" height="80" as="geometry" />
        </mxCell>
        <mxCell id="8ay12BuJfRKTgijHyB5j-25" value="&lt;font style=&quot;font-size: 15px;&quot;&gt;search bar&lt;/font&gt;" style="ellipse;whiteSpace=wrap;html=1;aspect=fixed;labelBackgroundColor=none;fillColor=#F2CC8F;strokeColor=#E07A5F;fontColor=#393C56;" vertex="1" parent="1">
          <mxGeometry x="70" y="420" width="80" height="80" as="geometry" />
        </mxCell>
        <mxCell id="8ay12BuJfRKTgijHyB5j-28" value="&lt;font style=&quot;font-size: 15px;&quot;&gt;add or delete items&lt;/font&gt;" style="ellipse;whiteSpace=wrap;html=1;aspect=fixed;labelBackgroundColor=none;fillColor=#F2CC8F;strokeColor=#E07A5F;fontColor=#393C56;" vertex="1" parent="1">
          <mxGeometry x="560" y="360" width="110" height="110" as="geometry" />
        </mxCell>
        <mxCell id="8ay12BuJfRKTgijHyB5j-30" value="Orders" style="ellipse;whiteSpace=wrap;html=1;aspect=fixed;labelBackgroundColor=none;fillColor=#F2CC8F;strokeColor=#E07A5F;fontColor=#393C56;" vertex="1" parent="1">
          <mxGeometry x="700" y="370" width="80" height="80" as="geometry" />
        </mxCell>
        <mxCell id="8ay12BuJfRKTgijHyB5j-31" value="Cart" style="ellipse;whiteSpace=wrap;html=1;aspect=fixed;labelBackgroundColor=none;fillColor=#F2CC8F;strokeColor=#E07A5F;fontColor=#393C56;" vertex="1" parent="1">
          <mxGeometry x="800" y="370" width="80" height="80" as="geometry" />
        </mxCell>
      </root>
    </mxGraphModel>
  </diagram>
</mxfile>
